HIERARCHY
ROOT hip
{
  OFFSET 7.70293 84.592 222.869
  CHANNELS 6 Xposition Yposition Zposition Zrotation Xrotation Yrotation
  JOINT abdomen
  {
    OFFSET 0 20.6881 -0.73152
    CHANNELS 3 Zrotation Xrotation Yrotation
    JOINT chest
    {
      OFFSET 0 11.7043 -0.48768
      CHANNELS 3 Zrotation Xrotation Yrotation
      JOINT neck
      {
        OFFSET 0 22.1894 -2.19456
        CHANNELS 3 Zrotation Xrotation Yrotation
        JOINT head
        {
          OFFSET -0.24384 7.07133 1.2192
          CHANNELS 3 Zrotation Xrotation Yrotation
          JOINT leftEye
          {
            OFFSET 4.14528 8.04674 8.04672
            CHANNELS 3 Zrotation Xrotation Yrotation
            End Site
            {
              OFFSET 1 0 0
            }
          }
          JOINT rightEye
          {
            OFFSET -3.6576 8.04674 8.04672
            CHANNELS 3 Zrotation Xrotation Yrotation
            End Site
            {
              OFFSET 1 0 0
            }
          }
        }
      }
      JOINT rCollar
      {
        OFFSET -2.68224 19.2634 -4.8768
        CHANNELS 3 Zrotation Xrotation Yrotation
        JOINT rShldr
        {
          OFFSET -8.77824 -1.95073 1.46304
          CHANNELS 3 Zrotation Xrotation Yrotation
          JOINT rForeArm
          {
            OFFSET -28.1742 -1.7115 0.48768
            CHANNELS 3 Zrotation Xrotation Yrotation
            JOINT rHand
            {
              OFFSET -22.5879 0.773209 7.07136
              CHANNELS 3 Zrotation Xrotation Yrotation
              JOINT rThumb1
              {
                OFFSET -1.2192 -0.487915 3.41376
                CHANNELS 3 Zrotation Xrotation Yrotation
                JOINT rThumb2
                {
                  OFFSET -3.37035 -0.52449 3.41376
                  CHANNELS 3 Zrotation Xrotation Yrotation
                  End Site
                  {
                    OFFSET -1.78271 -1.18214 1.43049
                  }
                }
              }
              JOINT rIndex1
              {
                OFFSET -7.75947 0.938293 5.60832
                CHANNELS 3 Zrotation Xrotation Yrotation
                JOINT rIndex2
                {
                  OFFSET -2.54057 -0.884171 1.56538
                  CHANNELS 3 Zrotation Xrotation Yrotation
                  End Site
                  {
                    OFFSET -1.62519 -0.234802 1.16502
                  }
                }
              }
              JOINT rMid1
              {
                OFFSET -8.24714 1.18213 3.41376
                CHANNELS 3 Zrotation Xrotation Yrotation
                JOINT rMid2
                {
                  OFFSET -3.10165 -0.590103 1.0647
                  CHANNELS 3 Zrotation Xrotation Yrotation
                  End Site
                  {
                    OFFSET -2.48547 -0.328903 0.83742
                  }
                }
              }
              JOINT rRing1
              {
                OFFSET -8.82822 0.546677 1.51678
                CHANNELS 3 Zrotation Xrotation Yrotation
                JOINT rRing2
                {
                  OFFSET -2.60934 -0.819778 -0.0198488
                  CHANNELS 3 Zrotation Xrotation Yrotation
                  End Site
                  {
                    OFFSET -2.33842 -0.294052 0.168128
                  }
                }
              }
              JOINT rPinky1
              {
                OFFSET -8.27202 -0.0477905 -0.4584
                CHANNELS 3 Zrotation Xrotation Yrotation
                JOINT rPinky2
                {
                  OFFSET -1.82734 -0.647385 -0.700984
                  CHANNELS 3 Zrotation Xrotation Yrotation
                  End Site
                  {
                    OFFSET -1.69225 -0.51767 -0.607171
                  }
                }
              }
            }
          }
        }
      }
      JOINT lCollar
      {
        OFFSET 2.68224 19.2634 -4.8768
        CHANNELS 3 Zrotation Xrotation Yrotation
        JOINT lShldr
        {
          OFFSET 8.77824 -1.95073 1.46304
          CHANNELS 3 Zrotation Xrotation Yrotation
          JOINT lForeArm
          {
            OFFSET 28.1742 -1.7115 0.48768
            CHANNELS 3 Zrotation Xrotation Yrotation
            JOINT lHand
            {
              OFFSET 22.5879 0.773209 7.07136
              CHANNELS 3 Zrotation Xrotation Yrotation
              JOINT lThumb1
              {
                OFFSET 1.2192 -0.487915 3.41376
                CHANNELS 3 Zrotation Xrotation Yrotation
                JOINT lThumb2
                {
                  OFFSET 3.37035 -0.52449 3.41376
                  CHANNELS 3 Zrotation Xrotation Yrotation
                  End Site
                  {
                    OFFSET 1.78271 -1.18214 1.43049
                  }
                }
              }
              JOINT lIndex1
              {
                OFFSET 7.75947 0.938293 5.60832
                CHANNELS 3 Zrotation Xrotation Yrotation
                JOINT lIndex2
                {
                  OFFSET 2.54057 -0.884171 1.56538
                  CHANNELS 3 Zrotation Xrotation Yrotation
                  End Site
                  {
                    OFFSET 1.62519 -0.234802 1.16502
                  }
                }
              }
              JOINT lMid1
              {
                OFFSET 8.24714 1.18213 3.41376
                CHANNELS 3 Zrotation Xrotation Yrotation
                JOINT lMid2
                {
                  OFFSET 3.10165 -0.590103 1.0647
                  CHANNELS 3 Zrotation Xrotation Yrotation
                  End Site
                  {
                    OFFSET 2.48547 -0.328903 0.83742
                  }
                }
              }
              JOINT lRing1
              {
                OFFSET 8.82822 0.546677 1.51678
                CHANNELS 3 Zrotation Xrotation Yrotation
                JOINT lRing2
                {
                  OFFSET 2.60934 -0.819778 -0.0198488
                  CHANNELS 3 Zrotation Xrotation Yrotation
                  End Site
                  {
                    OFFSET 2.33842 -0.294052 0.168128
                  }
                }
              }
              JOINT lPinky1
              {
                OFFSET 8.27202 -0.0477905 -0.4584
                CHANNELS 3 Zrotation Xrotation Yrotation
                JOINT lPinky2
                {
                  OFFSET 1.82734 -0.647385 -0.700984
                  CHANNELS 3 Zrotation Xrotation Yrotation
                  End Site
                  {
                    OFFSET 1.69225 -0.51767 -0.607171
                  }
                }
              }
            }
          }
        }
      }
    }
  }
  JOINT rButtock
  {
    OFFSET -8.77824 4.35084 1.2192
    CHANNELS 3 Zrotation Xrotation Yrotation
    JOINT rThigh
    {
      OFFSET 0 -1.70687 -2.19456
      CHANNELS 3 Zrotation Xrotation Yrotation
      JOINT rShin
      {
        OFFSET 0 -36.8199 0.73152
        CHANNELS 3 Zrotation Xrotation Yrotation
        JOINT rFoot
        {
          OFFSET 0.73152 -45.1104 -5.12064
          CHANNELS 3 Zrotation Xrotation Yrotation
          End Site
          {
            OFFSET -1.1221 -3.69964 12.103
          }
        }
      }
    }
  }
  JOINT lButtock
  {
    OFFSET 8.77824 4.35084 1.2192
    CHANNELS 3 Zrotation Xrotation Yrotation
    JOINT lThigh
    {
      OFFSET 0 -1.70687 -2.19456
      CHANNELS 3 Zrotation Xrotation Yrotation
      JOINT lShin
      {
        OFFSET 0 -36.8199 0.73152
        CHANNELS 3 Zrotation Xrotation Yrotation
        JOINT lFoot
        {
          OFFSET -0.73152 -45.1104 -5.12064
          CHANNELS 3 Zrotation Xrotation Yrotation
          End Site
          {
            OFFSET 1.1221 -3.69964 12.103
          }
        }
      }
    }
  }
}
MOTION
Frames:	5
Frame Time:	0.00833333
1.39718 84.9173 -160.527 0.106914 -5.28414e-005 -0.00183431 -0.140625 -0.000295016 -0.00400525 -0.0387669 -0.000394551 -0.00671563 -5.10056e-016 0 -3.88251e-017 -1.60581e-015 3.18055e-015 -1.21134e-016 -0 0 0 -0 0 0 -2.00124e-016 -1.16475e-018 1.49089e-016 -3.60414e-015 -2.29845e-016 3.97569e-016 -9.62118e-014 2.78299e-014 -9.54166e-015 -1.11027e-012 -3.44394e-014 -8.5875e-014 -2.61883e-012 -1.23751e-014 -2.00375e-013 -4.53587e-012 -2.22639e-014 -3.4509e-013 -2.61442e-012 -9.1441e-015 -2.13097e-013 7.73091 5.47488 0.417314 -2.61944e-012 -1.27222e-014 -1.94014e-013 2.90554 0.965183 0.102902 -2.61217e-012 -1.23246e-014 -1.98785e-013 10.2786 0.731801 0.0259123 -2.63251e-012 -9.54166e-015 -1.94014e-013 2.22167 -0.733487 -0.20892 -2.96853e-016 -1.55301e-018 -1.49089e-016 -7.5212e-015 3.47873e-016 -1.19271e-015 -9.77027e-014 -2.90226e-014 0 -1.11331e-012 2.98922e-014 -9.22361e-014 -2.62302e-012 -3.40393e-015 -2.00375e-013 -4.52195e-012 -6.36111e-015 -3.37139e-013 -2.62754e-012 -1.98785e-015 -1.90833e-013 -7.73091 5.47488 -0.417314 -2.62296e-012 -3.57812e-015 -2.00375e-013 -2.90554 0.965183 -0.102902 -2.62481e-012 -3.37934e-015 -1.96399e-013 -10.2786 0.731801 -0.0259123 -2.617e-012 -2.38542e-015 -2.06736e-013 -2.22167 -0.733487 0.20892 -2.03217e-016 0 -3.88251e-019 0.415452 -2.89234 -0.0363695 -0.00657579 -0.313961 -0.0578454 -0.521685 3.20536 0.125418 2.03217e-016 0 3.88251e-019 -0.629352 -3.43714 0.0497311 0.00497789 0.672914 0.0432305 0.523144 2.76331 -0.116511 
1.01062 83.6606 -161.515 -0.8494 0.448531 1.20419 0.715162 -0.337434 0.405511 0.36218 -1.17448 0.112484 1.63513 -1.51188 0.183584 -2.37269 0.885359 -0.176742 -0 0 0 -0 0 0 3.01521e-015 -2.50971e-014 -6.89534e-015 21.5243 3.39389 -0.490163 -3.29713 -1.35211 5.29746 0.000534837 -0.518578 -0.0728709 -8.8225e-012 -2.1011e-010 2.90977e-010 -1.52822e-011 -3.63267e-010 5.03133e-010 -8.81565e-012 -2.10108e-010 2.90966e-010 7.73091 5.47488 0.417314 -8.82296e-012 -2.10111e-010 2.90981e-010 2.90554 0.965183 0.102902 -8.81574e-012 -2.10111e-010 2.90979e-010 10.2786 0.731801 0.0259123 -8.8322e-012 -2.10109e-010 2.90986e-010 2.22167 -0.733487 -0.20892 2.95863e-015 -2.50978e-014 -7.19469e-015 -21.3591 7.18024 1.16245 4.05575 -1.81134 -6.3684 -0.0105527 -2.2791 0.319391 9.26792e-011 -8.99783e-011 -2.3762e-010 1.61446e-010 -1.54692e-010 -4.10481e-010 9.26749e-011 -8.99784e-011 -2.37609e-010 -7.73091 5.47488 -0.417314 9.26792e-011 -8.99801e-011 -2.3762e-010 -2.90554 0.965183 -0.102902 9.26768e-011 -8.99796e-011 -2.37617e-010 -10.2786 0.731801 -0.0259123 9.26855e-011 -8.9978e-011 -2.37627e-010 -2.22167 -0.733487 0.20892 -2.03217e-016 0 -3.88251e-019 1.15309 -4.2458 -0.388265 0.00530643 6.5195 0.0681564 -1.09223 0.389791 -6.97629 2.03217e-016 0 3.88251e-019 0.853354 -5.18301 -1.05213 -0.00788139 7.48482 -0.0701386 0.814355 -0.434231 3.85461 
0.997242 83.6609 -161.538 -1.88106 0.920683 2.48014 1.62252 -0.690631 0.850743 0.78221 -2.41368 0.24182 3.38229 -3.1221 0.373492 -4.87256 1.82845 -0.376447 -0 0 0 -0 0 0 6.41476e-015 -5.3274e-014 -1.38652e-014 44.3538 6.96656 -1.01372 -6.515 -2.74472 10.9118 -0.00034729 -1.07554 -0.151156 -2.15253e-011 -4.4005e-010 6.12099e-010 -3.72586e-011 -7.60835e-010 1.05837e-009 -2.15157e-011 -4.40049e-010 6.12088e-010 7.73091 5.47488 0.417314 -2.15256e-011 -4.40052e-010 6.12099e-010 2.90554 0.965183 0.102902 -2.15184e-011 -4.40053e-010 6.121e-010 10.2786 0.731801 0.0259123 -2.15308e-011 -4.40053e-010 6.12109e-010 2.22167 -0.733487 -0.20892 6.40106e-015 -5.32753e-014 -1.41665e-014 -44.2504 14.7794 2.44269 7.90804 -3.65136 -13.1205 0.00601179 -4.69083 0.659088 1.90179e-010 -1.99798e-010 -5.00409e-010 3.31324e-010 -3.43615e-010 -8.64476e-010 1.90175e-010 -1.99799e-010 -5.00396e-010 -7.73091 5.47488 -0.417314 1.90179e-010 -1.99801e-010 -5.00409e-010 -2.90554 0.965183 -0.102902 1.90176e-010 -1.998e-010 -5.00407e-010 -10.2786 0.731801 -0.0259123 1.90185e-010 -1.99798e-010 -5.00416e-010 -2.22167 -0.733487 0.20892 -2.03217e-016 0 -3.88251e-019 1.91568 -5.67354 -0.761637 -0.0155624 13.7428 0.20636 -2.44702 -2.49937 -14.4982 2.03217e-016 0 3.88251e-019 2.34743 -7.02314 -2.22783 0.00865353 14.6864 -0.195141 1.60366 -3.77887 8.07158 
1.00427 83.6573 -161.574 -2.81865 1.34332 3.61714 2.44119 -1.01151 1.22471 1.17875 -3.52261 0.351475 4.93454 -4.53545 0.55229 -7.10167 2.65598 -0.530733 -0 0 0 -0 0 0 9.44587e-015 -7.52888e-014 -2.09842e-014 64.7494 10.1787 -1.49139 -9.15052 -3.91784 15.9262 -0.002354 -1.55572 -0.218684 -2.12298e-011 -6.30304e-010 8.73333e-010 -3.67749e-011 -1.08976e-009 1.51009e-009 -2.12181e-011 -6.30304e-010 8.73323e-010 7.73091 5.47488 0.417314 -2.123e-011 -6.30307e-010 8.73331e-010 2.90554 0.965183 0.102902 -2.12229e-011 -6.30309e-010 8.73334e-010 10.2786 0.731801 0.0259123 -2.12316e-011 -6.30309e-010 8.73345e-010 2.22167 -0.733487 -0.20892 9.46959e-015 -7.52904e-014 -2.12859e-014 -65.0062 21.5039 3.71921 10.98 -5.16602 -19.1765 0.0450308 -6.83644 0.964272 2.83284e-010 -2.69928e-010 -7.1246e-010 4.93381e-010 -4.64062e-010 -1.23077e-009 2.8328e-010 -2.69931e-010 -7.12445e-010 -7.73091 5.47488 -0.417314 2.83284e-010 -2.69933e-010 -7.1246e-010 -2.90554 0.965183 -0.102902 2.8328e-010 -2.69932e-010 -7.12459e-010 -10.2786 0.731801 -0.0259123 2.8329e-010 -2.69929e-010 -7.12467e-010 -2.22167 -0.733487 0.20892 -2.03217e-016 0 -3.88251e-019 2.57813 -6.95174 -1.09702 -0.0655697 20.1861 0.339702 -4.28545 -4.87833 -21.2596 2.03217e-016 0 3.88251e-019 3.61528 -8.66335 -3.28023 0.0518868 21.1083 -0.316302 2.72336 -6.68733 11.8782 
0.996845 83.6554 -161.599 -3.48137 1.64441 4.4059 3.02747 -1.2518 1.42037 1.50561 -4.30593 0.411326 5.97965 -5.45679 0.701881 -8.66745 3.19471 -0.570894 -0 0 0 -0 0 0 1.15558e-014 -8.18983e-014 -2.84759e-014 78.9359 12.4922 -1.83486 -10.8515 -4.67509 19.4082 -0.00417203 -1.84397 -0.259244 1.15613e-011 -7.21343e-010 9.84849e-010 1.98586e-011 -1.24706e-009 1.70302e-009 1.15736e-011 -7.21344e-010 9.8484e-010 7.73091 5.47488 0.417314 1.15611e-011 -7.21347e-010 9.84846e-010 2.90554 0.965183 0.102902 1.15684e-011 -7.2135e-010 9.8485e-010 10.2786 0.731801 0.0259123 1.15619e-011 -7.2135e-010 9.84862e-010 2.22167 -0.733487 -0.20892 1.16033e-014 -8.18995e-014 -2.87741e-014 -79.7585 26.0754 4.76868 12.9296 -6.12232 -23.4242 0.0856087 -8.31757 1.17732 3.65402e-010 -2.40836e-010 -7.97667e-010 6.35884e-010 -4.13319e-010 -1.3778e-009 3.65397e-010 -2.40841e-010 -7.97651e-010 -7.73091 5.47488 -0.417314 3.65402e-010 -2.40842e-010 -7.97667e-010 -2.90554 0.965183 -0.102902 3.65398e-010 -2.40841e-010 -7.97666e-010 -10.2786 0.731801 -0.0259123 3.65409e-010 -2.40838e-010 -7.97674e-010 -2.22167 -0.733487 0.20892 -2.03217e-016 0 -3.88251e-019 3.02554 -7.85694 -1.33336 -0.120145 24.6796 0.441683 -5.89806 -6.3657 -26.0126 2.03217e-016 0 3.88251e-019 4.46227 -9.81386 -4.00408 0.0999706 25.5815 -0.409228 3.73303 -8.65119 14.5652 
